<svg width="76" height="76" viewBox="0 0 76 76" fill="none" xmlns="http://www.w3.org/2000/svg">
<path fill-rule="evenodd" clip-rule="evenodd" d="M75.5 3.625C75.5 2.7962 75.1708 2.00134 74.5848 1.41529C73.9987 0.829241 73.2038 0.5 72.375 0.5H34.875C34.0462 0.5 33.2514 0.829241 32.6653 1.41529C32.0793 2.00134 31.75 2.7962 31.75 3.625C31.75 4.4538 32.0793 5.24866 32.6653 5.83471C33.2514 6.42076 34.0462 6.75 34.875 6.75H64.8313L1.41254 70.1625C1.12199 70.453 0.891515 70.798 0.734271 71.1776C0.577027 71.5572 0.496094 71.9641 0.496094 72.375C0.496094 72.7859 0.577027 73.1928 0.734271 73.5724C0.891515 73.952 1.12199 74.297 1.41254 74.5875C1.70309 74.8781 2.04802 75.1085 2.42764 75.2658C2.80727 75.423 3.21414 75.5039 3.62504 75.5039C4.03594 75.5039 4.44282 75.423 4.82244 75.2658C5.20206 75.1085 5.54699 74.8781 5.83754 74.5875L69.25 11.1688V41.125C69.25 41.9538 69.5793 42.7487 70.1653 43.3347C70.7514 43.9208 71.5462 44.25 72.375 44.25C73.2038 44.25 73.9987 43.9208 74.5848 43.3347C75.1708 42.7487 75.5 41.9538 75.5 41.125V3.625Z" fill="#262626"/>
</svg>
