<svg width="78" height="19" viewBox="0 0 78 19" fill="none" xmlns="http://www.w3.org/2000/svg">
<path d="M10.2336 15.1104C10.2336 15.648 10.1376 16.1216 9.9456 16.5312C9.7664 16.9408 9.4656 17.2864 9.0432 17.568C8.6208 17.8624 8.0576 18.08 7.3536 18.2208C6.6624 18.3744 5.8048 18.4512 4.7808 18.4512C3.9104 18.4512 3.168 18.3936 2.5536 18.2784C1.952 18.176 1.4592 18.0224 1.0752 17.8176C0.704 17.6256 0.4288 17.3824 0.2496 17.088C0.0832 16.8064 0 16.48 0 16.1088C0 15.5456 0.1664 15.104 0.4992 14.784C0.832 14.464 1.2928 14.2656 1.8816 14.1888V13.9776C1.3952 13.888 1.0304 13.6832 0.7872 13.3632C0.544 13.0304 0.4224 12.6464 0.4224 12.2112C0.4224 11.9424 0.4736 11.712 0.576 11.52C0.6912 11.3152 0.832 11.1424 0.9984 11.0016C1.1776 10.848 1.3824 10.7264 1.6128 10.6368C1.8432 10.5472 2.0736 10.4768 2.304 10.4256V10.3488C1.6896 10.0672 1.2352 9.6832 0.9408 9.1968C0.6464 8.6976 0.4992 8.1216 0.4992 7.4688C0.4992 6.4448 0.8512 5.6256 1.5552 5.0112C2.272 4.384 3.36 4.0704 4.8192 4.0704C5.4848 4.0704 6.0544 4.1344 6.528 4.2624V3.8784C6.528 3.3408 6.656 2.9568 6.912 2.7264C7.1808 2.4832 7.5584 2.3616 8.0448 2.3616H9.6384V4.4736H7.4112V4.5888C8 4.8704 8.4352 5.2608 8.7168 5.76C8.9984 6.2464 9.1392 6.816 9.1392 7.4688C9.1392 8.48 8.7808 9.2928 8.064 9.9072C7.36 10.5088 6.2784 10.8096 4.8192 10.8096C4.1664 10.8096 3.5712 10.7392 3.0336 10.5984C2.7392 10.7904 2.592 11.0592 2.592 11.4048C2.592 11.648 2.6816 11.84 2.8608 11.9808C3.0528 12.1088 3.3664 12.1728 3.8016 12.1728H6.72C7.9488 12.1728 8.8384 12.4288 9.3888 12.9408C9.952 13.4528 10.2336 14.176 10.2336 15.1104ZM7.5648 15.4944C7.5648 15.2 7.4496 14.976 7.2192 14.8224C6.9888 14.6688 6.5856 14.592 6.0096 14.592H2.5536C2.4256 14.72 2.3296 14.8608 2.2656 15.0144C2.2144 15.1808 2.1888 15.3408 2.1888 15.4944C2.1888 15.8656 2.3488 16.1344 2.6688 16.3008C2.9888 16.48 3.5328 16.5696 4.3008 16.5696H5.4528C6.2208 16.5696 6.7648 16.48 7.0848 16.3008C7.4048 16.1344 7.5648 15.8656 7.5648 15.4944ZM4.8192 8.9472C5.3824 8.9472 5.7984 8.832 6.0672 8.6016C6.3488 8.3584 6.4896 8.0128 6.4896 7.5648V7.3344C6.4896 6.8864 6.3488 6.5472 6.0672 6.3168C5.7984 6.0736 5.3824 5.952 4.8192 5.952C4.256 5.952 3.8336 6.0736 3.552 6.3168C3.2832 6.5472 3.1488 6.8864 3.1488 7.3344V7.5648C3.1488 8.0128 3.2832 8.3584 3.552 8.6016C3.8336 8.832 4.256 8.9472 4.8192 8.9472Z" fill="#2765F5"/>
<path d="M12.341 3.2256C11.7649 3.2256 11.3425 3.0976 11.0737 2.8416C10.8177 2.5728 10.6897 2.2336 10.6897 1.824V1.4016C10.6897 0.992 10.8177 0.6592 11.0737 0.403199C11.3425 0.1344 11.7649 0 12.341 0C12.917 0 13.333 0.1344 13.589 0.403199C13.8578 0.6592 13.9922 0.992 13.9922 1.4016V1.824C13.9922 2.2336 13.8578 2.5728 13.589 2.8416C13.333 3.0976 12.917 3.2256 12.341 3.2256ZM10.9201 4.3008H13.7618V14.3808H10.9201V4.3008Z" fill="#2765F5"/>
<path d="M23.2875 14.3808C22.7755 14.3808 22.3467 14.2208 22.0011 13.9008C21.6683 13.5808 21.4571 13.152 21.3675 12.6144H21.2523C21.0987 13.2672 20.7595 13.7664 20.2347 14.112C19.7099 14.4448 19.0635 14.6112 18.2955 14.6112C17.2843 14.6112 16.5099 14.3424 15.9723 13.8048C15.4347 13.2672 15.1659 12.5568 15.1659 11.6736C15.1659 10.6112 15.5499 9.824 16.3179 9.312C17.0987 8.7872 18.1547 8.5248 19.4859 8.5248H21.0795V7.8912C21.0795 7.4048 20.9515 7.0208 20.6955 6.7392C20.4395 6.4448 20.0107 6.2976 19.4091 6.2976C18.8459 6.2976 18.3979 6.4192 18.0651 6.6624C17.7323 6.9056 17.4571 7.1808 17.2395 7.488L15.5499 5.9904C15.9595 5.3888 16.4715 4.9216 17.0859 4.5888C17.7131 4.2432 18.5579 4.0704 19.6203 4.0704C21.0539 4.0704 22.1291 4.384 22.8459 5.0112C23.5627 5.6384 23.9211 6.5536 23.9211 7.7568V12.1728H24.8619V14.3808H23.2875ZM19.3515 12.6336C19.8251 12.6336 20.2283 12.5312 20.5611 12.3264C20.9067 12.1216 21.0795 11.7888 21.0795 11.328V10.1376H19.6971C18.5835 10.1376 18.0267 10.5152 18.0267 11.2704V11.5584C18.0267 11.9296 18.1419 12.2048 18.3723 12.384C18.6027 12.5504 18.9291 12.6336 19.3515 12.6336Z" fill="#2765F5"/>
<path d="M26.1932 14.3808V4.3008H29.0347V6.0096H29.15C29.3292 5.4848 29.6428 5.0304 30.0908 4.6464C30.5388 4.2624 31.1596 4.0704 31.9532 4.0704C32.99 4.0704 33.7708 4.416 34.2956 5.1072C34.8332 5.7984 35.102 6.784 35.102 8.064V14.3808H32.2603V8.2944C32.2603 7.6416 32.158 7.1616 31.9532 6.8544C31.7484 6.5344 31.3836 6.3744 30.8588 6.3744C30.6284 6.3744 30.4044 6.4064 30.1868 6.4704C29.9692 6.5216 29.7708 6.6112 29.5916 6.7392C29.4252 6.8672 29.2908 7.0272 29.1884 7.2192C29.086 7.3984 29.0347 7.6096 29.0347 7.8528V14.3808H26.1932Z" fill="#2765F5"/>
<path d="M41.1251 14.6112C40.3699 14.6112 39.6979 14.4896 39.1091 14.2464C38.5203 13.9904 38.0275 13.6384 37.6307 13.1904C37.2339 12.7296 36.9331 12.1728 36.7283 11.52C36.5235 10.8672 36.4211 10.1376 36.4211 9.3312C36.4211 8.5248 36.5235 7.8016 36.7283 7.1616C36.9331 6.5088 37.2339 5.952 37.6307 5.4912C38.0275 5.0304 38.5203 4.6784 39.1091 4.4352C39.6979 4.192 40.3699 4.0704 41.1251 4.0704C42.1491 4.0704 43.0003 4.3008 43.6787 4.7616C44.3699 5.2224 44.8627 5.8688 45.1571 6.7008L42.8531 7.6992C42.7635 7.3152 42.5779 6.9888 42.2963 6.72C42.0147 6.4512 41.6243 6.3168 41.1251 6.3168C40.5491 6.3168 40.1139 6.5088 39.8195 6.8928C39.5251 7.264 39.3779 7.7696 39.3779 8.4096V10.2912C39.3779 10.9312 39.5251 11.4368 39.8195 11.808C40.1139 12.1792 40.5491 12.3648 41.1251 12.3648C41.6371 12.3648 42.0403 12.2304 42.3347 11.9616C42.6419 11.68 42.8659 11.3152 43.0067 10.8672L45.2147 11.8272C44.8819 12.7872 44.3635 13.4912 43.6595 13.9392C42.9683 14.3872 42.1235 14.6112 41.1251 14.6112Z" fill="#2765F5"/>
<path d="M49.2198 14.3808C48.247 14.3808 47.5302 14.144 47.0694 13.6704C46.6214 13.1968 46.3974 12.512 46.3974 11.616V0.1728H49.239V12.1728H50.5062V14.3808H49.2198Z" fill="#2765F5"/>
<path d="M51.6339 0.1728H54.4755V5.9904H54.5715C54.7123 5.4272 55.0323 4.9664 55.5315 4.608C56.0435 4.2496 56.6259 4.0704 57.2787 4.0704C58.5587 4.0704 59.5251 4.5184 60.1779 5.4144C60.8307 6.3104 61.1571 7.616 61.1571 9.3312C61.1571 11.0464 60.8307 12.3584 60.1779 13.2672C59.5251 14.1632 58.5587 14.6112 57.2787 14.6112C56.9459 14.6112 56.6323 14.56 56.3379 14.4576C56.0435 14.368 55.7747 14.24 55.5315 14.0736C55.3011 13.8944 55.1027 13.6896 54.9363 13.4592C54.7699 13.216 54.6483 12.96 54.5715 12.6912H54.4755V14.3808H51.6339V0.1728ZM56.3379 12.3072C56.8755 12.3072 57.3171 12.1216 57.6627 11.7504C58.0211 11.3664 58.2003 10.8544 58.2003 10.2144V8.4672C58.2003 7.8272 58.0211 7.3216 57.6627 6.9504C57.3171 6.5664 56.8755 6.3744 56.3379 6.3744C55.8003 6.3744 55.3523 6.5088 54.9939 6.7776C54.6483 7.0336 54.4755 7.392 54.4755 7.8528V10.8288C54.4755 11.2896 54.6483 11.6544 54.9939 11.9232C55.3523 12.1792 55.8003 12.3072 56.3379 12.3072Z" fill="#2765F5"/>
<path d="M70.1888 14.3808C69.6768 14.3808 69.248 14.2208 68.9024 13.9008C68.5696 13.5808 68.3584 13.152 68.2688 12.6144H68.1535C67.9999 13.2672 67.6607 13.7664 67.1359 14.112C66.6111 14.4448 65.9647 14.6112 65.1967 14.6112C64.1855 14.6112 63.4112 14.3424 62.8736 13.8048C62.336 13.2672 62.0672 12.5568 62.0672 11.6736C62.0672 10.6112 62.4512 9.824 63.2192 9.312C64 8.7872 65.056 8.5248 66.3872 8.5248H67.9808V7.8912C67.9808 7.4048 67.8527 7.0208 67.5967 6.7392C67.3407 6.4448 66.9119 6.2976 66.3103 6.2976C65.7471 6.2976 65.2991 6.4192 64.9663 6.6624C64.6335 6.9056 64.3583 7.1808 64.1407 7.488L62.4511 5.9904C62.8607 5.3888 63.3727 4.9216 63.9871 4.5888C64.6143 4.2432 65.4592 4.0704 66.5216 4.0704C67.9552 4.0704 69.0304 4.384 69.7472 5.0112C70.464 5.6384 70.8223 6.5536 70.8223 7.7568V12.1728H71.7632V14.3808H70.1888ZM66.2527 12.6336C66.7263 12.6336 67.1295 12.5312 67.4623 12.3264C67.8079 12.1216 67.9808 11.7888 67.9808 11.328V10.1376H66.5984C65.4848 10.1376 64.9279 10.5152 64.9279 11.2704V11.5584C64.9279 11.9296 65.0432 12.2048 65.2736 12.384C65.504 12.5504 65.8303 12.6336 66.2527 12.6336Z" fill="#2765F5"/>
<path d="M75.9168 14.3808C74.944 14.3808 74.2272 14.144 73.7664 13.6704C73.3184 13.1968 73.0944 12.512 73.0944 11.616V0.1728H75.936V12.1728H77.2032V14.3808H75.9168Z" fill="#2765F5"/>
</svg>
